<?xml version="1.0" standalone="no"?>
<!DOCTYPE svg PUBLIC "-//W3C//DTD SVG 20010904//EN"
 "http://www.w3.org/TR/2001/REC-SVG-20010904/DTD/svg10.dtd">
<svg version="1.0" xmlns="http://www.w3.org/2000/svg"
 width="599.000000pt" height="184.000000pt" viewBox="0 0 599.000000 184.000000"
 preserveAspectRatio="xMidYMid meet">

<g transform="translate(0.000000,184.000000) scale(0.100000,-0.100000)"
fill="#000000" stroke="none">
<path d="M1010 1721 c-154 -50 -562 -285 -665 -385 -51 -49 -60 -77 -74 -236
-19 -207 -9 -532 21 -645 13 -52 67 -103 194 -187 132 -87 219 -136 362 -208
l120 -60 107 0 106 0 162 83 c258 133 470 274 502 336 28 54 39 180 39 436 0
257 -11 381 -39 436 -32 60 -265 217 -505 339 -118 60 -243 111 -267 109 -4 0
-33 -8 -63 -18z m255 -206 c149 -74 370 -208 433 -262 30 -26 33 -35 43 -118
12 -93 6 -576 -6 -627 -4 -16 -28 -43 -59 -67 -150 -116 -536 -325 -599 -325
-64 0 -421 190 -589 314 -62 45 -67 53 -75 97 -10 62 -10 593 0 655 7 42 14
52 69 93 83 62 222 147 358 219 152 80 220 107 250 101 14 -3 93 -39 175 -80z"/>
<path d="M805 1260 l-69 -70 32 0 32 0 0 -335 0 -335 70 0 70 0 0 135 0 135
135 0 135 0 0 -135 0 -135 -30 0 c-16 0 -30 -4 -30 -8 0 -4 28 -36 63 -70 l63
-62 69 70 69 70 -32 0 -32 0 -2 303 -3 302 -67 3 -68 3 0 -106 0 -105 -135 0
-135 0 0 135 0 135 30 0 c17 0 30 4 30 8 0 4 -28 36 -63 70 l-63 62 -69 -70z"/>
<path d="M3360 1205 l0 -235 40 0 40 0 0 75 c0 41 3 75 8 75 4 0 22 -21 40
-45 19 -24 39 -43 45 -42 7 1 11 -4 9 -12 -6 -28 29 -51 80 -51 47 0 48 1 36
19 -8 11 -42 50 -76 86 l-62 67 37 47 c21 25 45 53 53 62 8 8 25 27 38 41 l24
26 -55 1 c-53 0 -55 -1 -85 -43 -17 -24 -28 -47 -24 -51 4 -3 2 -5 -4 -3 -6 2
-22 -10 -37 -27 l-26 -30 -1 138 0 137 -40 0 -40 0 0 -235z"/>
<path d="M5462 1208 l3 -233 38 -3 39 -3 -2 43 c-3 72 0 108 8 108 4 0 34 -34
65 -75 l58 -75 50 0 50 0 -20 28 c-11 15 -45 53 -75 86 l-55 59 22 27 c12 15
46 55 75 89 l54 61 -54 0 c-50 0 -55 -3 -80 -39 -22 -30 -25 -41 -15 -51 10
-12 9 -12 -5 -2 -14 11 -19 9 -34 -17 -38 -64 -44 -50 -44 94 l0 135 -40 0
-40 0 2 -232z"/>
<path d="M2180 1190 l0 -220 40 0 40 0 0 95 0 95 100 0 100 0 0 -95 0 -95 40
0 40 0 0 220 0 220 -40 0 -40 0 0 -90 0 -90 -100 0 -100 0 0 90 0 90 -40 0
-40 0 0 -220z"/>
<path d="M4290 1190 l0 -220 40 0 40 0 0 91 0 90 26 -3 c22 -2 36 -19 76 -90
l49 -88 45 0 c25 0 44 3 42 8 -20 47 -63 110 -71 105 -6 -3 -7 -1 -3 6 4 6 1
23 -8 36 -16 24 -15 25 14 40 66 34 90 128 49 187 -33 46 -74 58 -194 58
l-105 0 0 -220z m215 135 c26 -25 33 -69 15 -80 -7 -4 -8 -11 -1 -18 6 -9 3
-12 -12 -13 -12 0 -47 -2 -77 -4 l-55 -4 -3 58 c-4 82 -1 86 58 86 41 0 56 -5
75 -25z"/>
<path d="M2697 1323 c-9 -2 -14 -9 -11 -15 5 -7 2 -8 -5 -3 -22 13 -78 -52
-91 -107 -21 -87 5 -162 72 -204 34 -21 50 -25 88 -22 27 3 61 15 79 27 l31
22 0 -25 c0 -24 4 -26 40 -26 l40 0 0 175 0 175 -39 0 c-35 0 -40 -3 -43 -26
l-3 -25 -23 21 c-34 32 -88 45 -135 33z m119 -85 c28 -13 44 -49 44 -99 0 -86
-93 -129 -159 -73 -27 22 -31 32 -31 76 0 61 13 86 53 103 32 14 54 13 93 -7z"/>
<path d="M3139 1326 c-2 -3 -17 -7 -33 -10 -114 -21 -164 -190 -83 -283 40
-46 77 -63 134 -63 63 0 109 26 140 78 l25 42 -45 0 c-37 0 -48 -4 -61 -25
-13 -19 -25 -25 -54 -25 -44 0 -91 28 -84 50 5 13 3 13 -14 0 -15 -11 -16 -11
-6 0 6 8 12 36 12 63 0 40 5 53 29 78 36 35 70 37 108 6 33 -27 103 -37 103
-14 0 21 -38 65 -68 81 -30 15 -96 29 -103 22z"/>
<path d="M3801 1318 c-52 -15 -78 -36 -101 -82 -21 -45 -26 -118 -11 -159 13
-33 49 -71 88 -91 36 -18 133 -22 133 -5 0 5 5 7 10 4 12 -7 90 66 90 84 0 6
-19 11 -45 11 -25 0 -45 -4 -45 -10 0 -5 -13 -16 -30 -25 -30 -15 -72 -12 -97
7 -7 5 -16 8 -20 5 -4 -3 -8 10 -9 29 l-1 34 129 0 128 0 0 40 c0 65 -53 152
-81 134 -7 -4 -9 -3 -5 4 4 7 -8 15 -31 21 -44 13 -56 13 -102 -1z m94 -68 c4
-6 11 -8 16 -5 5 4 9 -1 9 -10 0 -9 3 -14 8 -12 4 3 8 -6 8 -19 2 -23 0 -24
-77 -24 -43 0 -82 0 -86 0 -11 0 -10 61 1 68 5 3 6 0 2 -6 -11 -17 9 -15 24 3
14 17 85 21 95 5z"/>
<path d="M4755 1318 c-40 -14 -77 -49 -70 -66 2 -7 0 -10 -5 -7 -15 10 -30
-40 -30 -102 0 -108 73 -180 171 -171 32 3 58 13 72 27 30 28 40 27 35 -4 -5
-24 -3 -25 38 -25 l44 0 0 175 0 175 -45 0 c-35 0 -43 -3 -39 -15 11 -27 -6
-36 -28 -15 -12 11 -24 20 -27 21 -3 0 -13 2 -21 5 -44 11 -68 12 -95 2z m140
-93 c14 -13 25 -32 26 -42 5 -93 5 -112 -1 -102 -6 8 -10 7 -16 -3 -12 -21
-48 -38 -79 -38 -83 0 -126 111 -69 179 22 26 33 31 70 31 34 0 51 -6 69 -25z"/>
<path d="M5225 1318 c-16 -6 -37 -17 -46 -24 -21 -19 -29 -17 -29 6 0 17 -7
20 -40 20 l-40 0 0 -175 0 -175 40 0 40 0 0 104 c0 56 5 117 11 134 13 38 55
57 101 46 18 -4 35 -7 38 -7 9 2 11 -22 16 -154 l5 -123 40 0 39 0 0 125 c0
132 -7 161 -48 199 -12 10 -26 15 -33 10 -8 -4 -10 -3 -5 4 4 7 1 12 -6 12 -7
0 -22 2 -33 5 -11 2 -33 -1 -50 -7z"/>
<path d="M4060 1145 l0 -175 45 0 45 0 0 111 c0 61 5 119 10 130 7 11 26 21
50 25 39 6 40 8 40 45 0 33 -3 39 -21 39 -11 0 -34 -13 -50 -29 -30 -31 -32
-30 -29 7 1 20 -3 22 -44 22 l-46 0 0 -175z"/>
<path d="M3666 898 c-9 -12 -16 -28 -16 -35 0 -20 30 -43 59 -43 33 0 51 16
51 46 0 51 -66 73 -94 32z"/>
<path d="M2910 655 l0 -235 45 0 45 0 0 235 0 235 -45 0 -45 0 0 -235z"/>
<path d="M2235 851 c-62 -38 -81 -82 -64 -145 12 -42 45 -66 124 -92 75 -24
95 -40 95 -74 0 -33 -23 -50 -68 -50 -29 0 -62 26 -62 48 0 8 -18 12 -50 12
-27 0 -50 -2 -50 -5 0 -2 7 -23 16 -45 22 -54 75 -82 155 -82 75 0 121 27 143
83 13 32 14 48 6 80 -12 45 -44 69 -125 95 -71 23 -95 40 -95 69 0 55 63 73
106 30 19 -19 35 -25 69 -25 29 0 45 4 45 13 0 26 -39 74 -73 90 -48 23 -134
22 -172 -2z"/>
<path d="M3460 815 c0 -38 -3 -45 -20 -45 -16 0 -20 -7 -20 -35 0 -28 4 -35
19 -35 18 0 20 -10 23 -115 4 -142 13 -156 108 -163 l60 -4 0 36 c0 30 -4 36
-21 36 -11 0 -29 5 -40 10 -17 9 -19 22 -19 105 l0 95 40 0 c39 0 40 1 40 35
0 34 -1 35 -40 35 l-40 0 0 45 0 45 -45 0 -45 0 0 -45z"/>
<path d="M2614 761 c-61 -28 -95 -78 -101 -148 -8 -101 52 -182 147 -197 77
-12 161 28 195 95 22 42 19 134 -6 178 -44 79 -151 112 -235 72z m140 -92 c79
-93 -29 -234 -120 -156 -20 18 -28 35 -32 75 -4 47 -2 54 26 82 42 42 90 42
126 -1z"/>
<path d="M3882 759 c-125 -62 -124 -269 2 -326 162 -73 321 82 247 242 -22 48
-44 69 -94 90 -50 21 -104 19 -155 -6z m129 -69 c24 -13 49 -61 49 -95 0 -89
-101 -136 -160 -73 -31 33 -28 121 5 153 26 27 72 33 106 15z"/>
<path d="M4315 760 c-47 -24 -45 -24 -45 -5 0 11 -12 15 -45 15 l-45 0 0 -175
0 -175 44 0 44 0 4 121 c3 113 5 122 27 140 35 28 85 25 110 -7 18 -23 21 -41
21 -140 l0 -114 45 0 45 0 0 128 c0 146 -12 182 -71 214 -44 23 -85 23 -134
-2z"/>
<path d="M3052 636 c3 -118 6 -138 24 -163 43 -58 140 -75 195 -34 29 21 29
21 29 1 0 -17 6 -20 45 -20 l45 0 0 175 0 175 -44 0 -44 0 -4 -121 c-3 -113
-5 -122 -27 -140 -32 -26 -77 -24 -106 6 -24 23 -25 30 -25 140 l0 115 -46 0
-46 0 4 -134z"/>
<path d="M3660 595 l0 -175 45 0 45 0 0 175 0 175 -45 0 -45 0 0 -175z"/>
</g>
</svg>
